Coordinates
version=1
nRows=32
nColumns=12
inDegrees=yes

Units are S.I. units (second, meters, Newtons, ...)
Angles are in degrees

endheader
time	SC_y	SC_z	SC_x	AC_y	AC_z	AC_x	GH_y	GH_z	GH_yy	EL_x	PS_y
       0.0               -49.4          5.157          41.56          60.27          3.064         -9.636          157.9          1.583          174.5          134.2          33.99
  0.009284               -49.4          5.162          41.57          60.27          3.064         -9.636          157.9          1.582          174.5          134.2          33.99
   0.01857               -49.4          5.167          41.57          60.27          3.064         -9.636          157.9          1.581          174.5          134.2          33.99
   0.02785               -49.4          5.173          41.58          60.27          3.064         -9.636          157.9          1.579          174.5          134.2          33.99
   0.03713              -49.39          5.179          41.58          60.26          3.063         -9.636          157.9          1.578          174.5          134.2          33.99
   0.04642              -49.39          5.185          41.59          60.26          3.063         -9.636          157.8          1.577          174.5          134.2          33.99
    0.0557              -49.39          5.191          41.59          60.26          3.063         -9.636          157.8          1.575          174.5          134.2          33.99
   0.06499              -49.39          5.198           41.6          60.26          3.063         -9.636          157.8          1.573          174.5          134.1          33.99
   0.07427              -49.38          5.206          41.61          60.26          3.062         -9.636          157.8          1.572          174.5          134.1          33.99
   0.08355              -49.38          5.214          41.61          60.26          3.062         -9.636          157.7           1.57          174.5          134.1          33.99
   0.09284              -49.38          5.223          41.62          60.26          3.062         -9.636          157.7          1.567          174.5          134.1          33.99
    0.1021              -49.37          5.232          41.63          60.25          3.062         -9.636          157.7          1.565          174.5          134.1          33.99
    0.1114              -49.37          5.242          41.64          60.25          3.061         -9.636          157.7          1.563          174.5          134.1          33.99
    0.1207              -49.36          5.253          41.65          60.25          3.061         -9.636          157.6           1.56          174.5          134.0          33.99
      0.13              -49.36          5.265          41.66          60.25           3.06         -9.636          157.6          1.557          174.5          134.0          33.99
    0.1393              -49.35          5.278          41.67          60.24           3.06         -9.636          157.5          1.554          174.5          134.0          33.99
    0.1485              -49.35          5.292          41.68          60.24           3.06         -9.636          157.5          1.551          174.5          134.0          33.99
    0.1578              -49.34          5.307           41.7          60.24          3.059         -9.636          157.4          1.547          174.5          133.9          33.99
    0.1671              -49.34          5.324          41.71          60.24          3.058         -9.636          157.4          1.543          174.5          133.9          33.99
    0.1764              -49.33          5.342          41.73          60.23          3.058         -9.636          157.3          1.539          174.5          133.9          33.99
    0.1857              -49.32          5.362          41.75          60.23          3.057         -9.636          157.3          1.534          174.5          133.8          33.99
     0.195              -49.31          5.384          41.77          60.22          3.056         -9.636          157.2          1.529          174.5          133.8          33.99
    0.2042               -49.3          5.408          41.79          60.22          3.056         -9.636          157.1          1.523          174.5          133.7          33.99
    0.2135              -49.29          5.435          41.81          60.21          3.055         -9.636          157.0          1.516          174.5          133.7          33.99
    0.2228              -49.28          5.465          41.84          60.21          3.054         -9.636          156.9          1.509          174.5          133.6          33.99
    0.2321              -49.27          5.499          41.87           60.2          3.053         -9.637          156.8          1.501          174.5          133.5          33.99
    0.2414              -49.26          5.536           41.9          60.19          3.051         -9.637          156.7          1.492          174.5          133.5          33.99
    0.2507              -49.24          5.578          41.94          60.19           3.05         -9.637          156.5          1.482          174.5          133.4          33.99
    0.2599              -49.22          5.626          41.98          60.18          3.048         -9.637          156.4          1.471          174.5          133.3          33.99
    0.2692               -49.2           5.68          42.03          60.16          3.046         -9.637          156.2          1.458          174.6          133.2          33.99
    0.2785              -49.18          5.741          42.09          60.15          3.044         -9.637          156.0          1.443          174.6          133.1          33.99
    0.2878              -49.15          5.812          42.15          60.14          3.042         -9.637          155.8          1.426          174.6          132.9          33.99
